# Blender v3.0.0 OBJ File: 'rain.blend'
# www.blender.org
mtllib raindrop.mtl
o Cube_Cube.003
v 52.258804 18.181105 0.985083
v 53.068569 20.792793 0.175319
v 52.258804 18.181105 -0.985083
v 53.068569 20.792793 -0.175319
v 54.228973 18.181105 0.985083
v 53.419209 20.792793 0.175319
v 54.228973 18.181105 -0.985083
v 53.419209 20.792793 -0.175319
v 53.513474 14.441883 -0.269584
v 52.643261 17.238455 -0.600627
v 52.643261 17.238455 0.600627
v 53.844517 17.238455 -0.600627
v 53.844517 17.238455 0.600627
v 52.258804 18.181105 0.000000
v 52.576550 19.554033 0.667339
v 53.068569 20.792793 0.000000
v 52.576550 19.554033 -0.667339
v 53.243889 18.181105 -0.985083
v 53.243889 20.792793 -0.175319
v 53.911228 19.554033 -0.667339
v 53.911228 19.554033 0.667339
v 53.243889 18.181105 0.985083
v 53.243889 20.792793 0.175319
v 54.509972 15.153616 0.000000
v 53.513474 14.441883 0.000000
v 53.981075 14.712544 0.000000
v 53.243889 14.441883 0.000000
v 53.243889 19.554033 0.667339
v 53.243889 19.554033 -0.667339
v 52.576550 19.554033 0.000000
vt 0.500000 0.125000
vt 0.625000 0.125000
vt 0.625000 0.250000
vt 0.500000 0.250000
vt 0.500000 0.375000
vt 0.625000 0.375000
vt 0.625000 0.500000
vt 0.500000 0.500000
vt 0.625000 0.750000
vt 0.500000 0.750000
vt 0.500000 0.875000
vt 0.625000 0.875000
vt 0.625000 1.000000
vt 0.500000 1.000000
vt 0.375000 0.500000
vt 0.375000 0.750000
vt 0.375000 0.750000
vt 0.375000 0.500000
vt 0.750000 0.500000
vt 0.875000 0.500000
vt 0.875000 0.625000
vt 0.375000 0.000000
vt 0.375000 0.125000
vt 0.375000 0.250000
vt 0.375000 0.250000
vt 0.375000 0.000000
vt 0.375000 0.375000
vt 0.125000 0.500000
vt 0.125000 0.750000
vt 0.375000 0.875000
vt 0.375000 1.000000
vt 0.375000 1.000000
vt 0.750000 0.750000
vt 0.875000 0.750000
vt 0.500000 0.000000
vt 0.625000 0.000000
vn -0.9545 0.2981 0.0000
vn -0.5616 0.8274 0.0000
vn -0.4565 0.7636 -0.4565
vn -0.6521 0.3868 -0.6521
vn 0.0000 0.2981 -0.9545
vn 0.0000 0.8274 -0.5616
vn 0.4565 0.7636 -0.4565
vn 0.6521 0.3868 -0.6521
vn 0.4565 0.7636 0.4565
vn 0.6521 0.3868 0.6521
vn 0.0000 0.2981 0.9545
vn 0.0000 0.8274 0.5616
vn -0.4565 0.7636 0.4565
vn -0.6521 0.3868 0.6521
vn 0.7043 -0.0883 -0.7043
vn 0.7043 -0.0883 0.7043
vn 0.4532 -0.7676 0.4532
vn 0.4532 -0.7676 -0.4532
vn -0.7043 -0.0883 0.7043
vn -0.9968 -0.0798 0.0000
vn -0.7043 -0.0883 -0.7043
vn -0.4532 -0.7676 -0.4532
vn -0.4532 -0.7676 0.4532
vn 0.0000 -0.0798 -0.9968
vn 0.0000 -0.0798 0.9968
usemtl Material.001
s 1
f 30/1/1 16/2/2 4/3/3 17/4/4
f 29/5/5 19/6/6 8/7/7 20/8/8
f 20/8/8 8/7/7 6/9/9 21/10/10
f 28/11/11 23/12/12 2/13/13 15/14/14
f 7/15/15 5/16/16 13/17/17 12/18/18
f 19/19/6 4/20/3 16/21/2
f 1/22/19 14/23/20 3/24/21 10/25/22 11/26/23
f 3/24/21 18/27/24 7/15/15 12/18/18 10/25/22
f 10/28/22 12/18/18 13/17/17 11/29/23
f 5/16/16 22/30/25 1/31/19 11/32/23 13/17/17
f 19/19/6 16/21/2 23/33/12
f 23/33/12 16/21/2 2/34/13
f 8/7/7 19/19/6 23/33/12 6/9/9
f 22/30/25 28/11/11 15/14/14 1/31/19
f 5/16/16 21/10/10 28/11/11 22/30/25
f 21/10/10 6/9/9 23/12/12 28/11/11
f 7/15/15 20/8/8 21/10/10 5/16/16
f 18/27/24 29/5/5 20/8/8 7/15/15
f 3/24/21 17/4/4 29/5/5 18/27/24
f 17/4/4 4/3/3 19/6/6 29/5/5
f 14/23/20 30/1/1 17/4/4 3/24/21
f 1/22/19 15/35/14 30/1/1 14/23/20
f 15/35/14 2/36/13 16/2/2 30/1/1
l 25 9
l 26 25
l 24 26
l 25 27
